<?xml version="1.0" encoding="UTF-8"?>
<svg width="111px" height="35px" viewBox="0 0 111 35" version="1.1" xmlns="http://www.w3.org/2000/svg" xmlns:xlink="http://www.w3.org/1999/xlink">
    <!-- Generator: Sketch 52.3 (67297) - http://www.bohemiancoding.com/sketch -->
    <title>logo_couleurs com</title>
    <desc>Created with Sketch.</desc>
    <g id="logo_couleurs-com" stroke="none" stroke-width="1" fill="none" fill-rule="evenodd">
        <polygon id="Fill-1" fill="#1B1E1C" points="40.418 25.1 43.892 25.1 43.892 10.111 40.418 10.111"></polygon>
        <polyline id="Fill-2" fill="#1B1E1C" points="20.552 10.111 24.894 10.111 35.573 25.1 31.23 25.1 20.552 10.111"></polyline>
        <path d="M13.203,17.586 C13.203,15.012 11.756,12.825 8.764,12.825 C6.03,12.825 4.39,14.851 4.39,17.586 C4.39,20.319 6.03,22.346 8.764,22.346 C11.756,22.346 13.203,20.159 13.203,17.586 Z M0.884,17.586 C0.884,13.178 3.682,9.705 8.346,9.705 C10.34,9.705 12.142,10.605 13.074,12.117 L13.074,10.091 L16.548,10.091 L16.548,25.08 L13.074,25.08 L13.074,23.053 C12.142,24.565 10.083,25.466 8.25,25.466 C3.425,25.466 0.884,21.992 0.884,17.586 Z" id="Fill-3" fill="#1B1E1C"></path>
        <path d="M60.737,17.586 C60.737,14.851 59.161,12.825 56.33,12.825 C53.5,12.825 51.923,14.851 51.923,17.586 C51.923,20.319 53.5,22.346 56.33,22.346 C59.161,22.346 60.737,20.319 60.737,17.586 Z M48.417,17.586 C48.417,13.178 51.376,9.705 56.33,9.705 C61.284,9.705 64.243,13.178 64.243,17.586 C64.243,21.992 61.284,25.466 56.33,25.466 C51.376,25.466 48.417,21.992 48.417,17.586 Z" id="Fill-4" fill="#1B1E1C"></path>
        <path d="M68.719,10.111 L72.225,10.111 L72.225,12.202 C72.868,10.819 74.444,9.725 76.406,9.725 C79.14,9.725 80.491,10.916 81.134,12.395 C81.842,10.884 83.611,9.725 85.734,9.725 C90.237,9.725 91.138,12.813 91.138,15.612 L91.138,25.1 L87.632,25.1 L87.632,16.287 C87.632,13.81 86.667,12.717 84.833,12.717 C83.064,12.717 81.681,13.586 81.681,17.156 L81.681,25.1 L78.175,25.1 L78.175,16.255 C78.175,13.778 77.274,12.717 75.441,12.717 C73.672,12.717 72.225,13.586 72.225,17.156 L72.225,25.1 L68.719,25.1 L68.719,10.111" id="Fill-5" fill="#1B1E1C"></path>
        <path d="M106.872,16.095 C106.839,13.778 105.489,12.492 103.076,12.492 C100.599,12.492 99.12,13.971 99.087,16.095 L106.872,16.095 Z M95.614,17.606 C95.614,12.813 98.573,9.725 103.14,9.725 C107.418,9.725 110.313,12.62 110.313,16.834 C110.313,17.445 110.281,17.928 110.216,18.764 L99.087,18.764 C99.184,21.144 100.728,22.43 103.269,22.43 C105.006,22.43 106.036,21.884 106.614,20.726 L110.153,20.726 C109.702,23.524 106.872,25.486 103.269,25.486 C98.541,25.486 95.614,22.463 95.614,17.606 Z" id="Fill-6" fill="#1B1E1C"></path>
        <path d="M44.038,2.346 C44.038,3.376 43.198,4.226 42.158,4.226 C41.118,4.226 40.278,3.376 40.278,2.346 C40.278,1.716 40.588,1.166 41.058,0.826 C37.488,1.846 33.469,9.157 30.261,16.994 C24.912,30.067 18.013,34.764 13.063,34.764 C18.933,32.045 22.368,26.576 27.178,15.366 C34.638,-2.014 44.038,-1.774 44.038,2.346" id="Fill-7" fill="#79BB43"></path>
        <path d="M31.208,31.787 C31.208,30.089 32.309,28.799 34.163,28.799 C35.706,28.799 36.685,29.657 36.897,30.807 L36.081,30.807 C35.869,29.999 35.223,29.469 34.17,29.469 C32.783,29.469 31.983,30.44 31.983,31.787 C31.983,33.134 32.783,34.105 34.17,34.105 C35.223,34.105 35.869,33.574 36.081,32.766 L36.897,32.766 C36.685,33.917 35.706,34.775 34.163,34.775 C32.309,34.775 31.208,33.485 31.208,31.787" id="Fill-8" fill="#1B1E1C"></path>
        <path d="M43.284,31.787 C43.292,30.538 42.5,29.469 41.12,29.469 C39.732,29.469 38.94,30.538 38.949,31.787 C38.94,33.035 39.732,34.105 41.12,34.105 C42.5,34.105 43.292,33.035 43.284,31.787 Z M38.173,31.787 C38.173,30.179 39.275,28.799 41.12,28.799 C42.965,28.799 44.067,30.179 44.067,31.787 C44.067,33.395 42.965,34.775 41.12,34.775 C39.275,34.775 38.173,33.395 38.173,31.787 Z" id="Fill-9" fill="#1B1E1C"></path>
        <polyline id="Fill-10" fill="#1B1E1C" points="45.915 28.93 46.632 28.93 48.592 33.591 50.551 28.93 51.261 28.93 51.261 34.644 50.551 34.644 50.551 30.473 48.877 34.644 48.306 34.644 46.625 30.449 46.625 34.644 45.915 34.644 45.915 28.93"></polyline>
        <polyline id="Fill-11" fill="#1B1E1C" points="53.786 28.93 54.503 28.93 56.463 33.591 58.422 28.93 59.132 28.93 59.132 34.644 58.422 34.644 58.422 30.473 56.749 34.644 56.177 34.644 54.496 30.449 54.496 34.644 53.786 34.644 53.786 28.93"></polyline>
        <path d="M61.519,32.766 L61.519,28.93 L62.261,28.93 L62.261,32.726 C62.261,33.631 62.784,34.105 63.592,34.105 C64.409,34.105 64.931,33.631 64.931,32.726 L64.931,28.93 L65.674,28.93 L65.674,32.766 C65.674,34.073 64.858,34.775 63.592,34.775 C62.335,34.775 61.519,34.073 61.519,32.766" id="Fill-12" fill="#1B1E1C"></path>
        <polyline id="Fill-13" fill="#1B1E1C" points="68.142 28.93 68.934 28.93 71.505 33.403 71.505 28.93 72.215 28.93 72.215 34.644 71.432 34.644 68.852 30.171 68.852 34.644 68.142 34.644 68.142 28.93"></polyline>
        <polygon id="Fill-14" fill="#1B1E1C" points="74.905 34.644 75.647 34.644 75.647 28.93 74.905 28.93"></polygon>
        <path d="M77.915,31.787 C77.915,30.089 79.016,28.799 80.87,28.799 C82.413,28.799 83.392,29.657 83.604,30.807 L82.788,30.807 C82.576,29.999 81.93,29.469 80.877,29.469 C79.49,29.469 78.69,30.44 78.69,31.787 C78.69,33.134 79.49,34.105 80.877,34.105 C81.93,34.105 82.576,33.574 82.788,32.766 L83.604,32.766 C83.392,33.917 82.413,34.775 80.87,34.775 C79.016,34.775 77.915,33.485 77.915,31.787" id="Fill-15" fill="#1B1E1C"></path>
        <path d="M87.958,33.101 L86.97,29.967 L85.999,33.101 L87.958,33.101 Z M88.162,33.771 L85.794,33.771 L85.517,34.644 L84.716,34.644 L86.652,28.93 L87.304,28.93 L89.24,34.644 L88.439,34.644 L88.162,33.771 Z" id="Fill-16" fill="#1B1E1C"></path>
        <polyline id="Fill-17" fill="#1B1E1C" points="91.872 29.632 90.166 29.632 90.166 28.93 94.321 28.93 94.321 29.632 92.615 29.632 92.615 34.644 91.872 34.644 91.872 29.632"></polyline>
        <polygon id="Fill-18" fill="#1B1E1C" points="95.835 34.644 96.578 34.644 96.578 28.93 95.835 28.93"></polygon>
        <path d="M103.384,31.787 C103.392,30.538 102.6,29.469 101.22,29.469 C99.833,29.469 99.041,30.538 99.049,31.787 C99.041,33.035 99.833,34.105 101.22,34.105 C102.6,34.105 103.392,33.035 103.384,31.787 Z M98.274,31.787 C98.274,30.179 99.375,28.799 101.22,28.799 C103.066,28.799 104.167,30.179 104.167,31.787 C104.167,33.395 103.066,34.775 101.22,34.775 C99.375,34.775 98.274,33.395 98.274,31.787 Z" id="Fill-19" fill="#1B1E1C"></path>
        <polyline id="Fill-20" fill="#1B1E1C" points="105.852 28.93 106.644 28.93 109.215 33.403 109.215 28.93 109.925 28.93 109.925 34.644 109.142 34.644 106.562 30.171 106.562 34.644 105.852 34.644 105.852 28.93"></polyline>
    </g>
</svg>